<svg width="541" height="461" viewBox="0 0 541 461" fill="none" xmlns="http://www.w3.org/2000/svg">
<path d="M298.62 51.6141C312.422 51.0527 311.025 54.0068 310.993 65.9869L311.006 80.279C317.697 80.2061 324.753 80.474 331.397 80.1675C330.892 72.6869 331.386 63.9358 331.547 56.4098C331.69 49.731 343.221 51.4857 347.41 52.4774C348.554 53.5101 349.257 54.2377 349.508 55.8214C350.078 59.4241 349.84 63.4312 349.825 67.0865C349.774 71.4746 349.833 75.8632 349.991 80.2486L369.835 80.2872L369.785 65.5986C369.774 60.8676 368.495 52.1947 374.999 51.7773C389.417 50.8519 388.228 53.3968 388.165 65.825C388.101 70.6567 388.159 75.4891 388.339 80.3178C393.163 80.0114 399.228 80.4159 404.154 80.2684C410.04 80.092 416.855 82.295 421.026 86.6511C427.26 93.1603 427.361 99.6344 427.406 108.17C427.427 111.965 427.419 115.761 427.374 119.556C432.842 119.569 448.195 119.162 452.538 120.206C454.765 122.201 455.396 123.499 455.597 126.532C456.453 139.421 451.529 138.319 440.717 138.235C436.253 138.191 431.791 138.181 427.327 138.206C427.548 144.464 427.39 151.682 427.403 158.015C433.175 157.998 447.461 157.624 452.467 158.405C455.219 160.764 455.61 162.77 455.621 166.28C455.787 170.374 455.489 176.239 449.928 176.371C442.888 176.538 434.366 176.924 427.366 176.49C427.514 182.892 427.353 189.877 427.395 196.363C432.958 197.034 450.562 194.946 453.877 198.341C455.127 199.623 455.446 201.709 455.491 203.426C455.576 206.551 455.998 211.305 453.608 213.65C452.826 214.416 452.004 214.709 450.94 214.911C447.846 215.497 444.492 215.247 441.353 215.244L427.403 215.252C427.519 221.665 427.411 228.404 427.424 234.854C432.494 234.934 448.694 234.493 452.578 235.401C454.612 237.111 455.309 238.443 455.478 241.139C456.302 254.293 452.934 253.585 441.779 253.577C436.99 253.532 432.2 253.568 427.411 253.684L427.303 265.959C427.194 274.201 427.274 279.704 421.172 286.016C412.782 294.691 399.886 292.726 388.318 292.773C388.622 300.178 388.204 308.363 388.175 315.815C388.162 319.303 385.904 320.661 382.676 320.893C368.419 321.913 369.742 318.499 369.785 306.812L369.777 292.75C363.484 292.942 356.262 292.736 349.856 292.771C350.16 295.761 349.888 303.66 349.959 307.158L349.946 308.492C349.83 319.945 350.086 321.646 337.087 320.906C333.587 320.708 331.288 318.79 331.45 315.43C331.74 309.295 330.544 298.493 331.481 292.744C324.801 292.731 317.66 292.594 311.022 292.837L311.054 306.788C311.056 319.81 311.981 321.598 297.877 320.893C290.127 320.507 292.951 308.471 292.436 303.227C292.198 300.791 292.383 294.604 292.681 292.808C285.919 292.686 279.156 292.694 272.394 292.826C272.537 297.008 273.229 316.323 271.279 318.914C270.238 320.299 268.236 320.75 266.601 320.885C263.459 321.144 258.032 321.564 255.583 319.337C254.752 318.581 254.449 317.29 254.277 316.222C253.815 313.364 254.02 310.315 254.022 307.42L254.014 292.752C250.534 292.768 247.054 292.771 243.574 292.752C235.232 292.728 228.545 292.768 221.796 286.642C212.532 278.233 215.177 265.37 214.758 253.716C212.186 253.865 207.907 254.16 206.806 251.574C205.85 249.33 202.47 236.868 203.02 235.287C204.321 234.492 212.744 234.9 214.861 234.935C215.277 229.942 214.805 220.886 214.968 215.178C209.225 215.179 203.45 215.485 197.722 215.245C196.393 211.872 193.728 200.315 192.888 196.474C195.847 196.203 199.85 196.429 202.884 196.506C206.919 196.63 210.958 196.638 214.994 196.531C214.695 190.855 214.773 182.255 214.992 176.548C210.381 176.528 205.771 176.548 201.161 176.608C189.022 176.738 186.322 177.654 187.001 164.667C187.446 156.171 193.552 157.966 199.68 157.981L214.775 158.043C215.199 152.256 214.773 144.433 214.977 138.218C210.228 138.181 205.477 138.192 200.728 138.249C190.519 138.316 186.253 139.276 186.821 127.22C186.985 123.746 187.02 122.715 189.574 120.158C192.636 119.39 197.91 119.551 201.174 119.561C205.801 119.616 210.43 119.591 215.056 119.484C214.877 116.302 214.817 112.309 214.866 109.105C215.002 100.366 214.766 93.0879 221.504 86.611C228.262 80.1149 234.031 80.2338 242.683 80.2647L253.995 80.2986C253.868 75.6965 254.007 71.0424 254 66.4353C253.995 63.3404 253.638 59.8096 254.167 56.7743C254.39 55.4944 254.765 54.1563 255.626 53.1498C256.618 51.991 258.471 51.7847 259.903 51.7411C262.909 51.6492 268.719 51.1417 270.954 53.4337C273.68 56.2278 272.576 75.5549 272.526 80.2993C279.141 80.1556 285.863 80.3075 292.502 80.2563L292.465 65.844C292.462 62.9153 292.325 59.9194 292.681 57.015C293.21 52.6991 294.829 52.0774 298.62 51.6141ZM382.538 259.414C384.982 259.237 386.783 259.139 388.949 257.829C391.226 256.452 393.918 253.386 394.074 250.622C394.46 243.867 394.285 236.97 394.275 230.189L394.256 192.217L394.28 146.802C394.28 139.396 394.378 131.674 394.161 124.292C394.05 120.54 392.88 118.01 389.998 115.725C387.821 114 386.717 113.34 383.796 113.187C378.668 112.919 373.266 113.062 368.112 113.083L340.431 113.109L288.74 113.106C279.341 113.105 269.459 112.957 260.103 113.17C256.394 113.509 253.574 113.719 251.022 116.857C249.352 118.908 248.303 120.99 248.184 123.645C247.864 130.749 248.008 138.147 248.014 145.268L248.038 187.693L248.014 229.299C248.011 235.925 247.908 242.626 248.14 249.213C248.243 252.153 250.231 255.63 252.486 257.367C256.288 260.295 265.103 259.448 269.744 259.447L290.497 259.466L357.401 259.447C365.347 259.465 374.78 259.181 382.538 259.414Z" fill="#00CDCD"/>
<path d="M330.813 139.714C331.983 140.035 332.147 139.885 332.934 140.682C333.811 143.592 326.565 170.824 325.471 176.317C332.366 175.837 340.513 176.405 347.455 176.393C350.752 176.386 350.794 178.548 349.233 180.837C342.573 190.615 335.277 200.337 328.388 209.912L318.104 224.373C316.538 226.544 313.323 231.241 311.386 232.841C309.273 232.484 308.874 231.194 309.186 229.259C309.875 224.96 311.128 220.786 312.163 216.562L317.251 195.53C312.987 195.324 295.238 196.236 292.742 194.618C291.788 192.962 292.893 191.19 293.936 189.81C300.313 181.384 306.603 171.343 313.164 163.193C317.153 158.238 326.515 142.945 330.813 139.714Z" fill="#00CDCD"/>
<path d="M36.7047 8.03203C49.5149 7.49455 62.949 8.14933 75.8847 7.88449C84.9007 7.6999 90.7051 8.88249 97.8987 15.1513C99.648 16.6757 100.957 18.8477 102.756 20.6502C105.836 21.3896 109.138 21.5486 112.193 22.3557C128.588 26.6859 140.959 40.2507 145.03 56.5608C147.031 64.5751 148.912 72.891 151.045 80.9703C158.83 110.744 166.364 140.583 173.646 170.483L192.528 244.597L199.192 270.764C200.853 277.321 204.114 285.26 202.346 291.928C199.678 301.991 190.066 301.507 182.797 305.126C173.835 310.083 169.502 323.551 174.742 332.393C181.839 344.366 192.984 342.07 204.843 342.059L240.005 342.043L389.79 342.041L414.932 342.025C424.204 342.02 433.505 340.054 438.76 349.377C440.603 352.716 441.039 356.653 439.972 360.314C438.966 363.831 436.57 367.669 433.033 369.519C429.258 371.492 419.922 371.584 415.646 370.908C414.283 370.692 410.302 367.41 408.838 366.647C404.635 364.459 400.417 362.687 395.905 361.353C395.414 361.215 394.917 361.088 394.418 360.978C383.743 358.605 372.022 361.239 362.605 366.327C359.504 368.005 356.26 371.31 352.585 371.254C345.918 371.151 339.243 371.127 332.567 371.127H285.935L263.956 371.175C260.383 371.204 255.429 371.381 251.956 371.038C250.365 370.882 245.655 367.347 243.739 366.396C239.431 364.245 234.178 361.868 229.503 360.941C216.815 358.418 203.214 362.394 192.942 370.015C190.005 372.195 181.896 370.602 178.349 369.772C166.608 367.03 156.02 358.18 149.686 348.093C142.589 336.266 141.353 323.03 144.905 309.784C148.791 295.296 158.181 285.817 170.627 278.452C169.52 273.815 168.125 269.272 166.95 264.659L158.269 230.335L133.94 134.691L122.146 87.6177C120.714 81.8535 119.598 77.6699 117.741 70.2429C115.932 63.0061 113.314 51.1987 102.667 50.8875C102.033 50.869 99.6189 53.8249 98.9982 54.6011C94.0806 60.7489 85.1712 63.3567 77.5333 63.176C67.8558 63.2024 58.1083 63.0674 48.435 63.1778C38.599 63.2901 31.4461 63.5051 23.1251 57.165C17.4285 52.7827 13.7529 46.2772 12.939 39.1358C11.9884 31.7638 14.0078 24.316 18.5522 18.4339C22.8312 13.0074 29.8561 8.83486 36.7047 8.03203ZM79.5787 43.5654C81.9849 43.1781 84.0435 41.8218 85.4536 39.847C86.6724 38.1441 87.1276 36.0108 86.7097 33.9586C86.2606 31.7305 84.929 29.7792 83.018 28.5489C78.4333 25.6163 54.1607 27.8457 47.3939 27.1583C46.3827 27.0555 40.9387 27.1493 39.751 27.2822C36.6661 27.6655 36.4786 28.3127 34.4142 30.2463C29.2934 35.0433 34.0108 43.6333 40.1266 43.615C52.9416 43.5767 66.8567 44.182 79.5787 43.5654Z" fill="#00CDCD"/>
<path d="M384.026 371.68C403.914 370.94 420.646 386.442 421.428 406.33C422.21 426.218 406.746 442.985 386.863 443.812C366.916 444.639 350.086 429.116 349.302 409.167C348.517 389.216 364.076 372.419 384.026 371.68ZM387.381 421.38C394.975 420.273 400.208 413.183 399.03 405.598C397.852 398.016 390.714 392.849 383.141 394.098C375.67 395.332 370.585 402.357 371.75 409.841C372.912 417.323 379.889 422.474 387.381 421.38Z" fill="#00CDCD"/>
<path d="M219.604 371.656C239.519 370.84 256.324 386.323 257.139 406.24C257.953 426.157 242.468 442.962 222.553 443.775C202.641 444.586 185.84 429.103 185.026 409.188C184.211 389.274 199.692 372.472 219.604 371.656ZM220.45 421.476C225.401 421.687 230.083 419.219 232.708 415.016C235.332 410.813 235.494 405.522 233.13 401.165C230.767 396.809 226.244 394.061 221.289 393.971C213.757 393.834 207.515 399.778 207.286 407.31C207.056 414.839 212.924 421.153 220.45 421.476Z" fill="#00CDCD"/>
</svg>
